<svg xmlns="http://www.w3.org/2000/svg" viewBox="0 0 19.09 19.09"><defs><style>.cls-1{fill:#6e6e6e;fill-rule:evenodd;}</style></defs><g id="Camada_2" data-name="Camada 2"><g id="Camada_1-2" data-name="Camada 1"><path class="cls-1" d="M9.3,3.38h.49V0H9.3Zm.24,1.45A4.47,4.47,0,1,0,14,9.3,4.48,4.48,0,0,0,9.54,4.83Zm0,9.43a5,5,0,1,1,5-5A5,5,0,0,1,9.54,14.26Zm.25,4.83H9.3V15.71h.49ZM0,9.79H3.38V9.3H0Zm19.09,0H15.71V9.3h3.38ZM5.26,5.12,2.87,2.72l.34-.34L5.6,4.77ZM14,13.83l2.39,2.39.35-.34-2.4-2.39ZM3,16.22l-.35-.34L5,13.49l.34.34ZM13.73,4.77l.34.35,2.39-2.4-.34-.34Z"/></g></g></svg>